<svg xmlns="http://www.w3.org/2000/svg" xmlns:xlink="http://www.w3.org/1999/xlink" viewBox="0,0,256,256" width="100px" height="100px" fill-rule="nonzero"><g fill="#28ad85" fill-rule="nonzero" stroke="none" stroke-width="1" stroke-linecap="butt" stroke-linejoin="miter" stroke-miterlimit="10" stroke-dasharray="" stroke-dashoffset="0" font-family="none" font-weight="none" font-size="none" text-anchor="none" style="mix-blend-mode: normal"><g transform="scale(2.56,2.56)"><path d="M49.01172,8.21289c-1.01915,-0.00429 -2.04072,0.0148 -3.05859,0.05273c-14.25021,0.53114 -27.9043,4.88672 -27.9043,4.88672c-0.75389,0.23734 -1.29732,0.89635 -1.38672,1.68164c0,0 -0.98094,8.61096 -1.55078,18.91406c-0.56984,10.30311 -0.8062,22.17968 0.95898,29.44727c1.86348,7.6723 9.19627,14.90334 15.93945,20.56055c6.74319,5.65721 13.06445,9.59961 13.06445,9.59961c0.61348,0.38245 1.38558,0.4041 2.01953,0.05664c0,0 6.93493,-3.79604 14.47852,-9.04102c7.54358,-5.24497 15.77506,-11.66853 18.5332,-18.33789c2.59149,-6.26507 4.19977,-17.85618 5.33008,-28.16601c1.1303,-10.30984 1.66797,-19.18359 1.66797,-19.18359c0.05102,-0.84436 -0.43462,-1.62952 -1.21289,-1.96094c0,0 -17.64947,-7.59206 -33.83203,-8.42578c-1.01098,-0.05202 -2.02772,-0.07969 -3.04687,-0.08398zM49.1875,12.21289c0.89063,0.00684 1.78029,0.03255 2.66602,0.07813c6.85849,0.35335 13.92069,1.9729 19.60938,3.63867l-2.54883,2.9668c-0.24129,0.26968 -0.31808,0.64867 -0.2008,0.991c0.11728,0.34233 0.41035,0.59461 0.76632,0.65966c0.35597,0.06506 0.71932,-0.06725 0.9501,-0.34598l3.11719,-3.62695c1.09224,0.34145 2.13133,0.67101 3.07422,0.99219l-3.41406,3.04492c-0.41206,0.36783 -0.44791,1.00005 -0.08008,1.41211c0.36783,0.41206 1.00005,0.44791 1.41211,0.08008l4.24023,-3.7832c2.14317,0.77364 3.66847,1.38578 4.20313,1.60547c-0.07721,1.22527 -0.49264,8.10368 -1.52344,17.50586c-0.46869,4.27503 -1.06551,8.80238 -1.75,13.02148l-2.91016,-1.52734c-0.14746,-0.08003 -0.31269,-0.12167 -0.48047,-0.12109c-0.46259,0.00097 -0.86414,0.31905 -0.97097,0.76913c-0.10683,0.45008 0.10895,0.9147 0.52176,1.12344l3.49609,1.83594c-0.23029,1.31913 -0.46719,2.60107 -0.71484,3.81055l-5.40234,-4.47852c-0.17917,-0.15333 -0.40676,-0.23842 -0.64258,-0.24023c-0.42566,-0.00335 -0.80679,0.2631 -0.94982,0.66403c-0.14303,0.40092 -0.01661,0.84844 0.31505,1.11527l6.18945,5.13281c-0.362,1.57059 -0.7359,3.01352 -1.125,4.2207l-3.45703,-3.31445c-0.19277,-0.18976 -0.45418,-0.29334 -0.72461,-0.28711c-0.4073,0.00844 -0.76877,0.26309 -0.91383,0.64377c-0.14506,0.38068 -0.04472,0.81131 0.25367,1.08866l4.07813,3.90625c-2.13676,4.69285 -9.78713,11.29016 -16.98242,16.29297c-2.44943,1.70306 -4.6239,3.10454 -6.58203,4.33203c-0.22651,-0.32409 -0.64113,-1.20008 -1.01758,-2.29297c-0.39683,-1.15206 -0.79054,-2.53383 -1.13672,-3.85742c-0.69236,-2.64717 -1.19141,-5.05273 -1.19141,-5.05273c-0.09134,-0.47882 -0.51459,-0.82204 -1.00195,-0.8125c-0.29991,0.00578 -0.58138,0.14587 -0.76682,0.38164c-0.18544,0.23577 -0.25526,0.54233 -0.19021,0.83516c0,0 0.50695,2.44772 1.21484,5.1543c0.35395,1.35329 0.75769,2.77312 1.18164,4.00391c0.37759,1.09619 0.73563,2.00288 1.21289,2.70508c-2.37481,1.45126 -4.10903,2.4313 -4.80273,2.81836c-0.64481,-0.41261 -2.17052,-1.40172 -4.24609,-2.88672c0.16072,-1.91157 0.75254,-4.51084 1.42383,-6.77734c0.90666,-3.06121 1.89063,-5.5918 1.89063,-5.5918c0.12797,-0.31553 0.08661,-0.67449 -0.10976,-0.95265c-0.19637,-0.27816 -0.52077,-0.4373 -0.86094,-0.42235c-0.40111,0.01797 -0.75258,0.27408 -0.89258,0.65039c0,0 -1.01197,2.59676 -1.94531,5.74805c-0.56906,1.92136 -1.12894,4.0147 -1.39844,5.94141c-0.92284,-0.68706 -1.84487,-1.37846 -2.89453,-2.21094l3.20313,-5.10352c0.20501,-0.31591 0.21516,-0.72021 0.02628,-1.04602c-0.18889,-0.32581 -0.54479,-0.51788 -0.92081,-0.49695c-0.32953,0.01762 -0.62915,0.19666 -0.80078,0.47852l-3.07227,4.90234c-0.34337,-0.28161 -0.67769,-0.54877 -1.0293,-0.84375c-0.40756,-0.34192 -0.81469,-0.70934 -1.22266,-1.06445l3.06641,-3.54883c0.26164,-0.29472 0.32581,-0.71561 0.16388,-1.0749c-0.16193,-0.35929 -0.51978,-0.58999 -0.91388,-0.58916c-0.29379,0.00085 -0.57235,0.13085 -0.76172,0.35547l-3.05273,3.5332c-0.71163,-0.64907 -1.42053,-1.30749 -2.11133,-1.98437l2.65039,-2.80859c0.28742,-0.29584 0.36374,-0.73778 0.19218,-1.11288c-0.17156,-0.3751 -0.5558,-0.60639 -0.96757,-0.58244c-0.25987,0.01488 -0.5037,0.13049 -0.67969,0.32227l-2.59375,2.75c-0.76614,-0.79301 -1.4971,-1.59502 -2.20117,-2.4043l1.83594,-1.79687c0.29905,-0.2844 0.3927,-0.72327 0.23578,-1.10497c-0.15691,-0.38169 -0.53216,-0.62781 -0.94477,-0.61964c-0.25937,0.00517 -0.50658,0.11091 -0.68945,0.29492l-1.73828,1.70117c-1.0552,-1.31228 -1.99557,-2.62615 -2.77539,-3.91406l2.70313,-1.4707c0.41463,-0.21755 0.62281,-0.69366 0.50099,-1.14578c-0.12181,-0.45211 -0.54101,-0.75919 -1.00881,-0.73899c-0.15699,0.00659 -0.31022,0.05009 -0.44727,0.12695l-2.71289,1.47656c-0.49644,-1.00444 -0.8802,-1.98507 -1.11914,-2.92578l3.73438,-2.06836c0.41042,-0.22177 0.613,-0.69782 0.48824,-1.14733c-0.12476,-0.44951 -0.54372,-0.75306 -1.00973,-0.73158c-0.15731,0.00779 -0.31056,0.05263 -0.44727,0.13086l-3.18164,1.76172c-0.21723,-1.30055 -0.38208,-2.78019 -0.50977,-4.36719l3.7793,-1.42383c0.45868,-0.1646 0.73195,-0.63584 0.64698,-1.11569c-0.08496,-0.47986 -0.50342,-0.82861 -0.99073,-0.82571c-0.12363,0.00026 -0.24615,0.02343 -0.36133,0.06836l-3.2168,1.21289c-0.33434,-6.01691 -0.18008,-13.31506 0.18359,-19.89062c0.20218,-3.65563 0.43854,-6.73455 0.66406,-9.41602l5.66992,-1.24219c0.51534,-0.10401 0.86218,-0.58926 0.79374,-1.11052c-0.06844,-0.52126 -0.52878,-0.90054 -1.05351,-0.86799c-0.05661,0.00368 -0.1128,0.01218 -0.16797,0.02539l-5.07031,1.11133c0.11117,-1.23088 0.14559,-1.48078 0.23438,-2.35547l5.16211,-0.74414c0.52161,-0.06619 0.9029,-0.52498 0.87254,-1.0499c-0.03036,-0.52492 -0.46201,-0.93669 -0.98777,-0.94229c-0.05687,-0.00093 -0.11372,0.00299 -0.16992,0.01172l-4.66992,0.67188c0.03492,-0.31842 0.12677,-1.2659 0.14258,-1.4082c1.78712,-0.53856 15.30267,-4.54205 28.66211,-4.43945zM65.18359,17.11523c-0.25362,0.03487 -0.49366,0.16817 -0.66016,0.38867c-0.333,0.44 -0.24664,1.06739 0.19336,1.40039c0.44,0.333 1.06739,0.24664 1.40039,-0.19336c0.333,-0.44 0.24859,-1.06739 -0.19141,-1.40039c-0.22,-0.167 -0.48856,-0.23019 -0.74219,-0.19531zM62.17383,23.10547c-0.2535,0.03487 -0.49316,0.16672 -0.66016,0.38672c-0.333,0.44 -0.24664,1.06739 0.19336,1.40039c0.44,0.333 1.06739,0.24664 1.40039,-0.19336c0.333,-0.44 0.24664,-1.06739 -0.19336,-1.40039c-0.22,-0.1665 -0.48673,-0.22823 -0.74023,-0.19336zM67.47852,23.95703c-0.25362,0.03487 -0.49366,0.16672 -0.66016,0.38672c-0.333,0.44 -0.24664,1.06739 0.19336,1.40039c0.44,0.333 1.06739,0.24664 1.40039,-0.19336c0.333,-0.44 0.24859,-1.06739 -0.19141,-1.40039c-0.22,-0.1665 -0.48856,-0.22823 -0.74219,-0.19336zM30.46875,27.15625c-0.38652,-0.00494 -0.74901,-0.00166 -1.08008,0.00781c-1.32428,0.03788 -2.16211,0.16406 -2.16211,0.16406c-0.35352,0.05258 -0.65211,0.28981 -0.78326,0.62228c-0.13115,0.33247 -0.07493,0.70967 0.14749,0.98944c0.22241,0.27977 0.57721,0.4196 0.9307,0.3668c0,0 3.05889,-0.44782 6.59375,0.19141c3.53486,0.63923 7.37576,2.29169 9.25,6.50586c0.13613,0.34011 0.44733,0.57857 0.81114,0.62155c0.36381,0.04298 0.72201,-0.11638 0.93365,-0.4154c0.21165,-0.29902 0.24287,-0.68982 0.08138,-1.01865c-2.21076,-4.97083 -6.82286,-6.95759 -10.71875,-7.66211c-1.46096,-0.2642 -2.84436,-0.35821 -4.00391,-0.37305zM69.57617,28.80859c-3.08877,-0.04331 -6.07515,1.29198 -8.44727,2.75586c-3.16282,1.95184 -5.35742,4.24023 -5.35742,4.24023c-0.25039,0.257 -0.34391,0.62843 -0.24509,0.97336c0.09882,0.34493 0.37485,0.61048 0.72334,0.6959c0.34849,0.08541 0.71603,-0.0224 0.96315,-0.28253c0,0 2.04611,-2.12142 4.9668,-3.92383c2.92068,-1.80241 6.59364,-3.17675 9.83203,-2.02539c0.3367,0.11974 0.7117,0.05074 0.98373,-0.18101c0.27202,-0.23175 0.39973,-0.59103 0.33499,-0.94248c-0.06473,-0.35145 -0.31206,-0.64165 -0.6488,-0.76128c-1.0334,-0.36741 -2.07588,-0.53439 -3.10547,-0.54883zM27.89648,39.33789c-1.07906,0.02356 -1.94483,0.89897 -1.95643,1.97823c-0.0116,1.07926 0.83515,1.97308 1.91346,2.01982l11.22852,0.68359c-3.02716,2.94306 -8.41016,2.82227 -8.41016,2.82227c-0.36081,-0.02184 -0.70533,0.15271 -0.90112,0.45656c-0.19579,0.30385 -0.21239,0.68971 -0.04341,1.00925c0.16898,0.31954 0.49724,0.52303 0.85859,0.53224c0,0 8.31148,0.4884 11.47852,-5.48047c0.1606,-0.29223 0.165,-0.64527 0.01172,-0.94141c0.09761,-0.56675 -0.05346,-1.1481 -0.41463,-1.59564c-0.36117,-0.44754 -0.8975,-0.71797 -1.47209,-0.74225l-12.09375,-0.73828c-0.0663,-0.00461 -0.13279,-0.00591 -0.19922,-0.00391zM57.65234,40.31641c-0.6301,-0.01179 -1.2289,0.27407 -1.61594,0.77142c-0.38704,0.49735 -0.51706,1.14802 -0.35086,1.75592c-0.07725,0.23589 -0.06403,0.49207 0.03711,0.71875c0,0 2.67856,6.19931 8.82617,5.94922c0.36284,-0.00603 0.69394,-0.20814 0.86516,-0.5281c0.17122,-0.31996 0.15568,-0.70756 -0.04059,-1.01278c-0.19627,-0.30523 -0.54249,-0.48019 -0.90464,-0.45717c-2.97758,0.12113 -4.93117,-1.76005 -5.97852,-3.18945l11.54102,0.10938c0.71955,0.01436 1.39133,-0.35895 1.75915,-0.97755c0.36781,-0.6186 0.37494,-1.38711 0.01867,-2.01243c-0.35627,-0.62532 -1.02102,-1.01103 -1.74071,-1.01002zM46.60938,40.33789c-0.51328,0.0016 -0.94202,0.39152 -0.99219,0.90234c-0.42178,3.73946 -2.62259,8.01518 -6.30469,12.63672c-0.31516,0.39525 -0.28583,0.96353 0.06836,1.32422c2.43606,2.48393 5.2012,3.60883 7.9375,2.8125c0.3515,-0.09248 0.62516,-0.36839 0.71476,-0.72064c0.0896,-0.35225 -0.01896,-0.72538 -0.28355,-0.97458c-0.26459,-0.2492 -0.64355,-0.33523 -0.9898,-0.2247c-1.74007,0.50641 -3.44231,-0.16022 -5.3125,-1.83594c3.41313,-4.46076 5.70021,-8.7324 6.1582,-12.79297c0.03654,-0.28574 -0.0519,-0.57336 -0.24268,-0.78919c-0.19078,-0.21584 -0.46535,-0.33893 -0.75342,-0.33776zM22.99609,43.29297c-0.12908,0.01394 -0.25645,0.05214 -0.37695,0.11914c-0.482,0.268 -0.65472,0.87933 -0.38672,1.36133c0.268,0.482 0.87738,0.65572 1.35938,0.38672c0.482,-0.268 0.65472,-0.87738 0.38672,-1.35937c-0.20175,-0.3615 -0.59519,-0.54962 -0.98242,-0.50781zM28.14453,55.91797c-0.63472,0.01923 -1.22259,0.3387 -1.58402,0.86081c-0.36143,0.52211 -0.45347,1.18483 -0.24801,1.78567c0,0 1.18713,3.77517 4.73047,6.36523c3.37623,2.46791 9.04105,3.43782 16.59961,-0.24609c6.38575,4.24755 12.20272,3.43943 15.92383,1.07227c3.93375,-2.50243 5.94531,-6.26562 5.94531,-6.26562c0.53125,-0.96866 0.17666,-2.18457 -0.79199,-2.71582c-0.96866,-0.53125 -2.18457,-0.17666 -2.71582,0.79199c0,0 -1.67769,2.96439 -4.58594,4.81445c-2.90825,1.85007 -6.6525,2.86999 -12.44531,-1.49414c-0.62341,-0.46953 -1.46297,-0.53358 -2.15039,-0.16406c-7.24361,3.89428 -11.02806,2.7235 -13.41797,0.97656c-2.38991,-1.74694 -3.28906,-4.375 -3.28906,-4.375c-0.26643,-0.85821 -1.07249,-1.4334 -1.9707,-1.40625zM53.64258,74.54102c-0.12916,0.01394 -0.25841,0.05214 -0.37891,0.11914c-0.482,0.268 -0.65572,0.87933 -0.38672,1.36133c0.268,0.482 0.87738,0.65472 1.35938,0.38672c0.482,-0.268 0.65572,-0.87738 0.38672,-1.35937c-0.201,-0.3615 -0.593,-0.54963 -0.98047,-0.50781zM58.15625,77.45508c-0.12908,0.01399 -0.25841,0.05189 -0.37891,0.11914c-0.482,0.268 -0.65472,0.87933 -0.38672,1.36133c0.268,0.482 0.87933,0.65472 1.36133,0.38672c0.482,-0.268 0.65572,-0.87738 0.38672,-1.35937c-0.20175,-0.3615 -0.59519,-0.54977 -0.98242,-0.50781z"></path></g></g></svg>