<svg width="138" height="28" viewBox="0 0 138 28" fill="none" xmlns="http://www.w3.org/2000/svg">
<rect x="1.5" y="1.5" width="135" height="25" rx="12.5" fill="#101116" stroke="#1EC08F" stroke-width="3"/>
<path d="M50.3827 16.613C50.4854 16.613 50.5764 16.6527 50.6557 16.732L51.3977 17.537C50.987 18.0457 50.4807 18.4353 49.8787 18.706C49.2814 18.9767 48.5627 19.112 47.7227 19.112C46.9714 19.112 46.2947 18.9837 45.6927 18.727C45.0954 18.4703 44.5844 18.1133 44.1597 17.656C43.735 17.1987 43.4084 16.6527 43.1797 16.018C42.9557 15.3833 42.8437 14.6903 42.8437 13.939C42.8437 13.1783 42.965 12.483 43.2077 11.853C43.4504 11.2183 43.791 10.6723 44.2297 10.215C44.673 9.75767 45.2004 9.403 45.8117 9.151C46.423 8.89433 47.0997 8.766 47.8417 8.766C48.579 8.766 49.2324 8.88733 49.8017 9.13C50.3757 9.37267 50.8634 9.69 51.2647 10.082L50.6347 10.957C50.5974 11.013 50.5484 11.062 50.4877 11.104C50.4317 11.146 50.3524 11.167 50.2497 11.167C50.1797 11.167 50.1074 11.1483 50.0327 11.111C49.958 11.069 49.8764 11.02 49.7877 10.964C49.699 10.9033 49.5964 10.838 49.4797 10.768C49.363 10.698 49.2277 10.635 49.0737 10.579C48.9197 10.5183 48.74 10.4693 48.5347 10.432C48.334 10.39 48.1007 10.369 47.8347 10.369C47.382 10.369 46.9667 10.4507 46.5887 10.614C46.2154 10.7727 45.8934 11.006 45.6227 11.314C45.352 11.6173 45.142 11.9907 44.9927 12.434C44.8434 12.8727 44.7687 13.3743 44.7687 13.939C44.7687 14.5083 44.848 15.0147 45.0067 15.458C45.17 15.9013 45.3894 16.2747 45.6647 16.578C45.94 16.8813 46.2644 17.1147 46.6377 17.278C47.011 17.4367 47.4124 17.516 47.8417 17.516C48.0984 17.516 48.3294 17.502 48.5347 17.474C48.7447 17.446 48.936 17.4017 49.1087 17.341C49.286 17.2803 49.4517 17.2033 49.6057 17.11C49.7644 17.012 49.9207 16.893 50.0747 16.753C50.1214 16.711 50.1704 16.6783 50.2217 16.655C50.273 16.627 50.3267 16.613 50.3827 16.613ZM55.4422 11.706C55.9742 11.706 56.4572 11.7923 56.8912 11.965C57.3298 12.1377 57.7032 12.3827 58.0112 12.7C58.3238 13.0173 58.5642 13.4047 58.7322 13.862C58.9002 14.3193 58.9842 14.8303 58.9842 15.395C58.9842 15.9643 58.9002 16.4777 58.7322 16.935C58.5642 17.3923 58.3238 17.782 58.0112 18.104C57.7032 18.426 57.3298 18.6733 56.8912 18.846C56.4572 19.0187 55.9742 19.105 55.4422 19.105C54.9055 19.105 54.4178 19.0187 53.9792 18.846C53.5405 18.6733 53.1648 18.426 52.8522 18.104C52.5442 17.782 52.3038 17.3923 52.1312 16.935C51.9632 16.4777 51.8792 15.9643 51.8792 15.395C51.8792 14.8303 51.9632 14.3193 52.1312 13.862C52.3038 13.4047 52.5442 13.0173 52.8522 12.7C53.1648 12.3827 53.5405 12.1377 53.9792 11.965C54.4178 11.7923 54.9055 11.706 55.4422 11.706ZM55.4422 17.775C56.0395 17.775 56.4805 17.5743 56.7652 17.173C57.0545 16.7717 57.1992 16.1837 57.1992 15.409C57.1992 14.6343 57.0545 14.044 56.7652 13.638C56.4805 13.232 56.0395 13.029 55.4422 13.029C54.8355 13.029 54.3852 13.2343 54.0912 13.645C53.8018 14.051 53.6572 14.639 53.6572 15.409C53.6572 16.179 53.8018 16.767 54.0912 17.173C54.3852 17.5743 54.8355 17.775 55.4422 17.775ZM61.9202 12.7C62.0649 12.5553 62.2166 12.4223 62.3752 12.301C62.5386 12.175 62.7089 12.07 62.8862 11.986C63.0682 11.8973 63.2619 11.8297 63.4672 11.783C63.6726 11.7317 63.8966 11.706 64.1392 11.706C64.5312 11.706 64.8789 11.7737 65.1822 11.909C65.4856 12.0397 65.7376 12.2263 65.9382 12.469C66.1436 12.707 66.2976 12.994 66.4002 13.33C66.5076 13.6613 66.5612 14.0277 66.5612 14.429V19H64.8322V14.429C64.8322 13.9903 64.7319 13.652 64.5312 13.414C64.3306 13.1713 64.0249 13.05 63.6142 13.05C63.3156 13.05 63.0356 13.1177 62.7742 13.253C62.5129 13.3883 62.2656 13.5727 62.0322 13.806V19H60.3032V11.818H61.3602C61.5842 11.818 61.7312 11.923 61.8012 12.133L61.9202 12.7ZM69.8226 12.7C69.9672 12.5553 70.1189 12.4223 70.2776 12.301C70.4409 12.175 70.6112 12.07 70.7886 11.986C70.9706 11.8973 71.1642 11.8297 71.3696 11.783C71.5749 11.7317 71.7989 11.706 72.0416 11.706C72.4336 11.706 72.7812 11.7737 73.0846 11.909C73.3879 12.0397 73.6399 12.2263 73.8406 12.469C74.0459 12.707 74.1999 12.994 74.3026 13.33C74.4099 13.6613 74.4636 14.0277 74.4636 14.429V19H72.7346V14.429C72.7346 13.9903 72.6342 13.652 72.4336 13.414C72.2329 13.1713 71.9272 13.05 71.5166 13.05C71.2179 13.05 70.9379 13.1177 70.6766 13.253C70.4152 13.3883 70.1679 13.5727 69.9346 13.806V19H68.2056V11.818H69.2626C69.4866 11.818 69.6336 11.923 69.7036 12.133L69.8226 12.7ZM80.7349 14.583C80.7349 14.359 80.7022 14.149 80.6369 13.953C80.5762 13.7523 80.4829 13.5773 80.3569 13.428C80.2309 13.2787 80.0699 13.162 79.8739 13.078C79.6826 12.9893 79.4586 12.945 79.2019 12.945C78.7026 12.945 78.3082 13.0873 78.0189 13.372C77.7342 13.6567 77.5522 14.0603 77.4729 14.583H80.7349ZM77.4379 15.626C77.4659 15.9947 77.5312 16.3143 77.6339 16.585C77.7366 16.851 77.8719 17.0727 78.0399 17.25C78.2079 17.4227 78.4062 17.5533 78.6349 17.642C78.8682 17.726 79.1249 17.768 79.4049 17.768C79.6849 17.768 79.9252 17.7353 80.1259 17.67C80.3312 17.6047 80.5086 17.5323 80.6579 17.453C80.8119 17.3737 80.9449 17.3013 81.0569 17.236C81.1736 17.1707 81.2856 17.138 81.3929 17.138C81.5376 17.138 81.6449 17.1917 81.7149 17.299L82.2119 17.929C82.0206 18.153 81.8059 18.342 81.5679 18.496C81.3299 18.6453 81.0802 18.7667 80.8189 18.86C80.5622 18.9487 80.2986 19.0117 80.0279 19.049C79.7619 19.0863 79.5029 19.105 79.2509 19.105C78.7516 19.105 78.2872 19.0233 77.8579 18.86C77.4286 18.692 77.0552 18.447 76.7379 18.125C76.4206 17.7983 76.1709 17.397 75.9889 16.921C75.8069 16.4403 75.7159 15.885 75.7159 15.255C75.7159 14.765 75.7952 14.3053 75.9539 13.876C76.1126 13.442 76.3389 13.0663 76.6329 12.749C76.9316 12.427 77.2932 12.1727 77.7179 11.986C78.1472 11.7993 78.6302 11.706 79.1669 11.706C79.6196 11.706 80.0372 11.7783 80.4199 11.923C80.8026 12.0677 81.1316 12.28 81.4069 12.56C81.6822 12.8353 81.8969 13.176 82.0509 13.582C82.2096 13.9833 82.2889 14.443 82.2889 14.961C82.2889 15.2223 82.2609 15.3997 82.2049 15.493C82.1489 15.5817 82.0416 15.626 81.8829 15.626H77.4379ZM88.7314 13.337C88.6801 13.4023 88.6288 13.4537 88.5774 13.491C88.5308 13.5283 88.4608 13.547 88.3674 13.547C88.2788 13.547 88.1924 13.5213 88.1084 13.47C88.0244 13.414 87.9241 13.3533 87.8074 13.288C87.6908 13.218 87.5508 13.1573 87.3874 13.106C87.2288 13.05 87.0304 13.022 86.7924 13.022C86.4891 13.022 86.2231 13.078 85.9944 13.19C85.7658 13.2973 85.5744 13.4537 85.4204 13.659C85.2711 13.8643 85.1591 14.114 85.0844 14.408C85.0098 14.6973 84.9724 15.0263 84.9724 15.395C84.9724 15.7777 85.0121 16.1183 85.0914 16.417C85.1754 16.7157 85.2944 16.9677 85.4484 17.173C85.6024 17.3737 85.7891 17.5277 86.0084 17.635C86.2278 17.7377 86.4751 17.789 86.7504 17.789C87.0258 17.789 87.2474 17.7563 87.4154 17.691C87.5881 17.621 87.7328 17.5463 87.8494 17.467C87.9661 17.383 88.0664 17.3083 88.1504 17.243C88.2391 17.173 88.3371 17.138 88.4444 17.138C88.5844 17.138 88.6894 17.1917 88.7594 17.299L89.2564 17.929C89.0651 18.153 88.8574 18.342 88.6334 18.496C88.4094 18.6453 88.1761 18.7667 87.9334 18.86C87.6954 18.9487 87.4481 19.0117 87.1914 19.049C86.9394 19.0863 86.6874 19.105 86.4354 19.105C85.9921 19.105 85.5744 19.0233 85.1824 18.86C84.7904 18.692 84.4474 18.4493 84.1534 18.132C83.8594 17.8147 83.6261 17.4273 83.4534 16.97C83.2854 16.508 83.2014 15.983 83.2014 15.395C83.2014 14.8677 83.2761 14.38 83.4254 13.932C83.5794 13.4793 83.8034 13.0897 84.0974 12.763C84.3914 12.4317 84.7554 12.1727 85.1894 11.986C85.6234 11.7993 86.1228 11.706 86.6874 11.706C87.2241 11.706 87.6931 11.7923 88.0944 11.965C88.5004 12.1377 88.8644 12.385 89.1864 12.707L88.7314 13.337ZM92.7343 19.112C92.109 19.112 91.6283 18.937 91.2923 18.587C90.961 18.2323 90.7953 17.7447 90.7953 17.124V13.113H90.0603C89.967 13.113 89.8877 13.0827 89.8223 13.022C89.757 12.9613 89.7243 12.8703 89.7243 12.749V12.063L90.8793 11.874L91.2433 9.914C91.2667 9.82067 91.311 9.74833 91.3763 9.697C91.4417 9.64567 91.5257 9.62 91.6283 9.62H92.5243V11.881H94.4423V13.113H92.5243V17.005C92.5243 17.229 92.578 17.404 92.6853 17.53C92.7973 17.656 92.949 17.719 93.1403 17.719C93.2477 17.719 93.3363 17.7073 93.4063 17.684C93.481 17.656 93.544 17.628 93.5953 17.6C93.6513 17.572 93.7003 17.5463 93.7423 17.523C93.7843 17.495 93.8263 17.481 93.8683 17.481C93.9197 17.481 93.9617 17.495 93.9943 17.523C94.027 17.5463 94.062 17.5837 94.0993 17.635L94.6173 18.475C94.3653 18.685 94.076 18.8437 93.7493 18.951C93.4227 19.0583 93.0843 19.112 92.7343 19.112Z" fill="#1EC08F"/>
</svg>
