<svg width="138" height="28" viewBox="0 0 138 28" fill="none" xmlns="http://www.w3.org/2000/svg">
<rect x="1.5" y="1.5" width="135" height="25" rx="12.5" fill="#101116" stroke="#FF5858" stroke-width="3"/>
<path d="M43.5398 13.939C43.5398 14.681 43.4161 15.3623 43.1688 15.983C42.9215 16.6037 42.5738 17.138 42.1258 17.586C41.6778 18.034 41.1388 18.3817 40.5088 18.629C39.8788 18.8763 39.1788 19 38.4088 19H34.5518V8.878H38.4088C39.1788 8.878 39.8788 9.004 40.5088 9.256C41.1388 9.50333 41.6778 9.851 42.1258 10.299C42.5738 10.7423 42.9215 11.2743 43.1688 11.895C43.4161 12.5157 43.5398 13.197 43.5398 13.939ZM41.6078 13.939C41.6078 13.3837 41.5331 12.8867 41.3838 12.448C41.2391 12.0047 41.0268 11.6313 40.7468 11.328C40.4715 11.02 40.1355 10.7843 39.7388 10.621C39.3468 10.4577 38.9035 10.376 38.4088 10.376H36.4418V17.502H38.4088C38.9035 17.502 39.3468 17.4203 39.7388 17.257C40.1355 17.0937 40.4715 16.8603 40.7468 16.557C41.0268 16.249 41.2391 15.8757 41.3838 15.437C41.5331 14.9937 41.6078 14.4943 41.6078 13.939ZM46.5981 11.818V19H44.8621V11.818H46.5981ZM46.8361 9.725C46.8361 9.87433 46.8058 10.0143 46.7451 10.145C46.6845 10.2757 46.6028 10.39 46.5001 10.488C46.4021 10.586 46.2855 10.6653 46.1501 10.726C46.0148 10.782 45.8701 10.81 45.7161 10.81C45.5668 10.81 45.4245 10.782 45.2891 10.726C45.1585 10.6653 45.0441 10.586 44.9461 10.488C44.8481 10.39 44.7688 10.2757 44.7081 10.145C44.6521 10.0143 44.6241 9.87433 44.6241 9.725C44.6241 9.571 44.6521 9.42633 44.7081 9.291C44.7688 9.15567 44.8481 9.039 44.9461 8.941C45.0441 8.843 45.1585 8.766 45.2891 8.71C45.4245 8.64933 45.5668 8.619 45.7161 8.619C45.8701 8.619 46.0148 8.64933 46.1501 8.71C46.2855 8.766 46.4021 8.843 46.5001 8.941C46.6028 9.039 46.6845 9.15567 46.7451 9.291C46.8058 9.42633 46.8361 9.571 46.8361 9.725ZM52.7428 13.218C52.6962 13.2927 52.6472 13.3463 52.5958 13.379C52.5445 13.407 52.4792 13.421 52.3998 13.421C52.3158 13.421 52.2248 13.3977 52.1268 13.351C52.0335 13.3043 51.9238 13.253 51.7978 13.197C51.6718 13.1363 51.5272 13.0827 51.3638 13.036C51.2052 12.9893 51.0162 12.966 50.7968 12.966C50.4562 12.966 50.1878 13.0383 49.9918 13.183C49.8005 13.3277 49.7048 13.5167 49.7048 13.75C49.7048 13.904 49.7538 14.0347 49.8518 14.142C49.9545 14.2447 50.0875 14.3357 50.2508 14.415C50.4188 14.4943 50.6078 14.5667 50.8178 14.632C51.0278 14.6927 51.2402 14.7603 51.4548 14.835C51.6742 14.9097 51.8888 14.996 52.0988 15.094C52.3088 15.1873 52.4955 15.3087 52.6588 15.458C52.8268 15.6027 52.9598 15.7777 53.0578 15.983C53.1605 16.1883 53.2118 16.4357 53.2118 16.725C53.2118 17.0703 53.1488 17.39 53.0228 17.684C52.9015 17.9733 52.7195 18.2253 52.4768 18.44C52.2342 18.65 51.9332 18.8157 51.5738 18.937C51.2192 19.0537 50.8085 19.112 50.3418 19.112C50.0945 19.112 49.8518 19.0887 49.6138 19.042C49.3805 19 49.1542 18.9393 48.9348 18.86C48.7202 18.7807 48.5195 18.6873 48.3328 18.58C48.1508 18.4727 47.9898 18.356 47.8498 18.23L48.2488 17.572C48.3002 17.4927 48.3608 17.432 48.4308 17.39C48.5008 17.348 48.5895 17.327 48.6968 17.327C48.8042 17.327 48.9045 17.3573 48.9978 17.418C49.0958 17.4787 49.2078 17.544 49.3338 17.614C49.4598 17.684 49.6068 17.7493 49.7748 17.81C49.9475 17.8707 50.1645 17.901 50.4258 17.901C50.6312 17.901 50.8062 17.8777 50.9508 17.831C51.1002 17.7797 51.2215 17.7143 51.3148 17.635C51.4128 17.5557 51.4828 17.4647 51.5248 17.362C51.5715 17.2547 51.5948 17.145 51.5948 17.033C51.5948 16.865 51.5435 16.7273 51.4408 16.62C51.3428 16.5127 51.2098 16.4193 51.0418 16.34C50.8785 16.2607 50.6895 16.1907 50.4748 16.13C50.2648 16.0647 50.0478 15.9947 49.8238 15.92C49.6045 15.8453 49.3875 15.759 49.1728 15.661C48.9628 15.5583 48.7738 15.43 48.6058 15.276C48.4425 15.122 48.3095 14.933 48.2068 14.709C48.1088 14.485 48.0598 14.2143 48.0598 13.897C48.0598 13.603 48.1182 13.323 48.2348 13.057C48.3515 12.791 48.5218 12.56 48.7458 12.364C48.9745 12.1633 49.2568 12.0047 49.5928 11.888C49.9335 11.7667 50.3255 11.706 50.7688 11.706C51.2635 11.706 51.7138 11.7877 52.1198 11.951C52.5258 12.1143 52.8642 12.329 53.1348 12.595L52.7428 13.218ZM59.6582 13.337C59.6068 13.4023 59.5555 13.4537 59.5042 13.491C59.4575 13.5283 59.3875 13.547 59.2942 13.547C59.2055 13.547 59.1192 13.5213 59.0352 13.47C58.9512 13.414 58.8508 13.3533 58.7342 13.288C58.6175 13.218 58.4775 13.1573 58.3142 13.106C58.1555 13.05 57.9572 13.022 57.7192 13.022C57.4158 13.022 57.1498 13.078 56.9212 13.19C56.6925 13.2973 56.5012 13.4537 56.3472 13.659C56.1978 13.8643 56.0858 14.114 56.0112 14.408C55.9365 14.6973 55.8992 15.0263 55.8992 15.395C55.8992 15.7777 55.9388 16.1183 56.0182 16.417C56.1022 16.7157 56.2212 16.9677 56.3752 17.173C56.5292 17.3737 56.7158 17.5277 56.9352 17.635C57.1545 17.7377 57.4018 17.789 57.6772 17.789C57.9525 17.789 58.1742 17.7563 58.3422 17.691C58.5148 17.621 58.6595 17.5463 58.7762 17.467C58.8928 17.383 58.9932 17.3083 59.0772 17.243C59.1658 17.173 59.2638 17.138 59.3712 17.138C59.5112 17.138 59.6162 17.1917 59.6862 17.299L60.1832 17.929C59.9918 18.153 59.7842 18.342 59.5602 18.496C59.3362 18.6453 59.1028 18.7667 58.8602 18.86C58.6222 18.9487 58.3748 19.0117 58.1182 19.049C57.8662 19.0863 57.6142 19.105 57.3622 19.105C56.9188 19.105 56.5012 19.0233 56.1092 18.86C55.7172 18.692 55.3742 18.4493 55.0802 18.132C54.7862 17.8147 54.5528 17.4273 54.3802 16.97C54.2122 16.508 54.1282 15.983 54.1282 15.395C54.1282 14.8677 54.2028 14.38 54.3522 13.932C54.5062 13.4793 54.7302 13.0897 55.0242 12.763C55.3182 12.4317 55.6822 12.1727 56.1162 11.986C56.5502 11.7993 57.0495 11.706 57.6142 11.706C58.1508 11.706 58.6198 11.7923 59.0212 11.965C59.4272 12.1377 59.7912 12.385 60.1132 12.707L59.6582 13.337ZM64.322 11.706C64.854 11.706 65.337 11.7923 65.771 11.965C66.2097 12.1377 66.583 12.3827 66.891 12.7C67.2037 13.0173 67.444 13.4047 67.612 13.862C67.78 14.3193 67.864 14.8303 67.864 15.395C67.864 15.9643 67.78 16.4777 67.612 16.935C67.444 17.3923 67.2037 17.782 66.891 18.104C66.583 18.426 66.2097 18.6733 65.771 18.846C65.337 19.0187 64.854 19.105 64.322 19.105C63.7854 19.105 63.2977 19.0187 62.859 18.846C62.4204 18.6733 62.0447 18.426 61.732 18.104C61.424 17.782 61.1837 17.3923 61.011 16.935C60.843 16.4777 60.759 15.9643 60.759 15.395C60.759 14.8303 60.843 14.3193 61.011 13.862C61.1837 13.4047 61.424 13.0173 61.732 12.7C62.0447 12.3827 62.4204 12.1377 62.859 11.965C63.2977 11.7923 63.7854 11.706 64.322 11.706ZM64.322 17.775C64.9194 17.775 65.3604 17.5743 65.645 17.173C65.9344 16.7717 66.079 16.1837 66.079 15.409C66.079 14.6343 65.9344 14.044 65.645 13.638C65.3604 13.232 64.9194 13.029 64.322 13.029C63.7154 13.029 63.265 13.2343 62.971 13.645C62.6817 14.051 62.537 14.639 62.537 15.409C62.537 16.179 62.6817 16.767 62.971 17.173C63.265 17.5743 63.7154 17.775 64.322 17.775ZM70.8001 12.7C70.9448 12.5553 71.0964 12.4223 71.2551 12.301C71.4184 12.175 71.5888 12.07 71.7661 11.986C71.9481 11.8973 72.1418 11.8297 72.3471 11.783C72.5524 11.7317 72.7764 11.706 73.0191 11.706C73.4111 11.706 73.7588 11.7737 74.0621 11.909C74.3654 12.0397 74.6174 12.2263 74.8181 12.469C75.0234 12.707 75.1774 12.994 75.2801 13.33C75.3874 13.6613 75.4411 14.0277 75.4411 14.429V19H73.7121V14.429C73.7121 13.9903 73.6118 13.652 73.4111 13.414C73.2104 13.1713 72.9048 13.05 72.4941 13.05C72.1954 13.05 71.9154 13.1177 71.6541 13.253C71.3928 13.3883 71.1454 13.5727 70.9121 13.806V19H69.1831V11.818H70.2401C70.4641 11.818 70.6111 11.923 70.6811 12.133L70.8001 12.7ZM78.7024 12.7C78.8471 12.5553 78.9988 12.4223 79.1574 12.301C79.3208 12.175 79.4911 12.07 79.6684 11.986C79.8504 11.8973 80.0441 11.8297 80.2494 11.783C80.4548 11.7317 80.6788 11.706 80.9214 11.706C81.3134 11.706 81.6611 11.7737 81.9644 11.909C82.2678 12.0397 82.5198 12.2263 82.7204 12.469C82.9258 12.707 83.0798 12.994 83.1824 13.33C83.2898 13.6613 83.3434 14.0277 83.3434 14.429V19H81.6144V14.429C81.6144 13.9903 81.5141 13.652 81.3134 13.414C81.1128 13.1713 80.8071 13.05 80.3964 13.05C80.0978 13.05 79.8178 13.1177 79.5564 13.253C79.2951 13.3883 79.0478 13.5727 78.8144 13.806V19H77.0854V11.818H78.1424C78.3664 11.818 78.5134 11.923 78.5834 12.133L78.7024 12.7ZM89.6148 14.583C89.6148 14.359 89.5821 14.149 89.5168 13.953C89.4561 13.7523 89.3628 13.5773 89.2368 13.428C89.1108 13.2787 88.9498 13.162 88.7538 13.078C88.5625 12.9893 88.3385 12.945 88.0818 12.945C87.5825 12.945 87.1881 13.0873 86.8988 13.372C86.6141 13.6567 86.4321 14.0603 86.3528 14.583H89.6148ZM86.3178 15.626C86.3458 15.9947 86.4111 16.3143 86.5138 16.585C86.6165 16.851 86.7518 17.0727 86.9198 17.25C87.0878 17.4227 87.2861 17.5533 87.5148 17.642C87.7481 17.726 88.0048 17.768 88.2848 17.768C88.5648 17.768 88.8051 17.7353 89.0058 17.67C89.2111 17.6047 89.3885 17.5323 89.5378 17.453C89.6918 17.3737 89.8248 17.3013 89.9368 17.236C90.0535 17.1707 90.1655 17.138 90.2728 17.138C90.4175 17.138 90.5248 17.1917 90.5948 17.299L91.0918 17.929C90.9005 18.153 90.6858 18.342 90.4478 18.496C90.2098 18.6453 89.9601 18.7667 89.6988 18.86C89.4421 18.9487 89.1785 19.0117 88.9078 19.049C88.6418 19.0863 88.3828 19.105 88.1308 19.105C87.6315 19.105 87.1671 19.0233 86.7378 18.86C86.3085 18.692 85.9351 18.447 85.6178 18.125C85.3005 17.7983 85.0508 17.397 84.8688 16.921C84.6868 16.4403 84.5958 15.885 84.5958 15.255C84.5958 14.765 84.6751 14.3053 84.8338 13.876C84.9925 13.442 85.2188 13.0663 85.5128 12.749C85.8115 12.427 86.1731 12.1727 86.5978 11.986C87.0271 11.7993 87.5101 11.706 88.0468 11.706C88.4995 11.706 88.9171 11.7783 89.2998 11.923C89.6825 12.0677 90.0115 12.28 90.2868 12.56C90.5621 12.8353 90.7768 13.176 90.9308 13.582C91.0895 13.9833 91.1688 14.443 91.1688 14.961C91.1688 15.2223 91.1408 15.3997 91.0848 15.493C91.0288 15.5817 90.9215 15.626 90.7628 15.626H86.3178ZM97.6113 13.337C97.56 13.4023 97.5086 13.4537 97.4573 13.491C97.4106 13.5283 97.3406 13.547 97.2473 13.547C97.1586 13.547 97.0723 13.5213 96.9883 13.47C96.9043 13.414 96.804 13.3533 96.6873 13.288C96.5706 13.218 96.4306 13.1573 96.2673 13.106C96.1086 13.05 95.9103 13.022 95.6723 13.022C95.369 13.022 95.103 13.078 94.8743 13.19C94.6456 13.2973 94.4543 13.4537 94.3003 13.659C94.151 13.8643 94.039 14.114 93.9643 14.408C93.8896 14.6973 93.8523 15.0263 93.8523 15.395C93.8523 15.7777 93.892 16.1183 93.9713 16.417C94.0553 16.7157 94.1743 16.9677 94.3283 17.173C94.4823 17.3737 94.669 17.5277 94.8883 17.635C95.1076 17.7377 95.355 17.789 95.6303 17.789C95.9056 17.789 96.1273 17.7563 96.2953 17.691C96.468 17.621 96.6126 17.5463 96.7293 17.467C96.846 17.383 96.9463 17.3083 97.0303 17.243C97.119 17.173 97.217 17.138 97.3243 17.138C97.4643 17.138 97.5693 17.1917 97.6393 17.299L98.1363 17.929C97.945 18.153 97.7373 18.342 97.5133 18.496C97.2893 18.6453 97.056 18.7667 96.8133 18.86C96.5753 18.9487 96.328 19.0117 96.0713 19.049C95.8193 19.0863 95.5673 19.105 95.3153 19.105C94.872 19.105 94.4543 19.0233 94.0623 18.86C93.6703 18.692 93.3273 18.4493 93.0333 18.132C92.7393 17.8147 92.506 17.4273 92.3333 16.97C92.1653 16.508 92.0813 15.983 92.0813 15.395C92.0813 14.8677 92.156 14.38 92.3053 13.932C92.4593 13.4793 92.6833 13.0897 92.9773 12.763C93.2713 12.4317 93.6353 12.1727 94.0693 11.986C94.5033 11.7993 95.0026 11.706 95.5673 11.706C96.104 11.706 96.573 11.7923 96.9743 11.965C97.3803 12.1377 97.7443 12.385 98.0663 12.707L97.6113 13.337ZM101.614 19.112C100.989 19.112 100.508 18.937 100.172 18.587C99.8409 18.2323 99.6752 17.7447 99.6752 17.124V13.113H98.9402C98.8469 13.113 98.7675 13.0827 98.7022 13.022C98.6369 12.9613 98.6042 12.8703 98.6042 12.749V12.063L99.7592 11.874L100.123 9.914C100.147 9.82067 100.191 9.74833 100.256 9.697C100.322 9.64567 100.406 9.62 100.508 9.62H101.404V11.881H103.322V13.113H101.404V17.005C101.404 17.229 101.458 17.404 101.565 17.53C101.677 17.656 101.829 17.719 102.02 17.719C102.128 17.719 102.216 17.7073 102.286 17.684C102.361 17.656 102.424 17.628 102.475 17.6C102.531 17.572 102.58 17.5463 102.622 17.523C102.664 17.495 102.706 17.481 102.748 17.481C102.8 17.481 102.842 17.495 102.874 17.523C102.907 17.5463 102.942 17.5837 102.979 17.635L103.497 18.475C103.245 18.685 102.956 18.8437 102.629 18.951C102.303 19.0583 101.964 19.112 101.614 19.112Z" fill="#FF5858"/>
</svg>
