<svg width="98" height="37" viewBox="0 0 98 37" fill="none" xmlns="http://www.w3.org/2000/svg">
<rect x="1.5" y="1.5" width="95" height="34" rx="17" fill="#101116" stroke="#F9981C" stroke-width="3"/>
<path d="M46.2602 14.376V17.183H49.8022V18.632H46.2602V21.495H50.7542V23H44.3702V12.878H50.7542V14.376H46.2602ZM56.4118 17.652C56.2158 17.414 56.0011 17.246 55.7678 17.148C55.5391 17.05 55.2918 17.001 55.0258 17.001C54.7645 17.001 54.5288 17.05 54.3188 17.148C54.1088 17.246 53.9291 17.3953 53.7798 17.596C53.6305 17.792 53.5161 18.044 53.4368 18.352C53.3575 18.6553 53.3178 19.0147 53.3178 19.43C53.3178 19.85 53.3505 20.207 53.4158 20.501C53.4858 20.7903 53.5838 21.0283 53.7098 21.215C53.8358 21.397 53.9898 21.53 54.1718 21.614C54.3538 21.6933 54.5568 21.733 54.7808 21.733C55.1401 21.733 55.4458 21.6583 55.6978 21.509C55.9498 21.3597 56.1878 21.1473 56.4118 20.872V17.652ZM58.1408 12.598V23H57.0838C56.8551 23 56.7105 22.895 56.6498 22.685L56.5028 21.992C56.2135 22.3233 55.8798 22.5917 55.5018 22.797C55.1285 23.0023 54.6921 23.105 54.1928 23.105C53.8008 23.105 53.4415 23.0233 53.1148 22.86C52.7881 22.6967 52.5058 22.461 52.2678 22.153C52.0345 21.8403 51.8525 21.4553 51.7218 20.998C51.5958 20.5407 51.5328 20.018 51.5328 19.43C51.5328 18.898 51.6051 18.4033 51.7498 17.946C51.8945 17.4887 52.1021 17.092 52.3728 16.756C52.6435 16.42 52.9678 16.1587 53.3458 15.972C53.7238 15.7807 54.1485 15.685 54.6198 15.685C55.0211 15.685 55.3641 15.748 55.6488 15.874C55.9335 16 56.1878 16.1703 56.4118 16.385V12.598H58.1408ZM61.6392 15.818V23H59.9032V15.818H61.6392ZM61.8772 13.725C61.8772 13.8743 61.8468 14.0143 61.7862 14.145C61.7255 14.2757 61.6438 14.39 61.5412 14.488C61.4432 14.586 61.3265 14.6653 61.1912 14.726C61.0558 14.782 60.9112 14.81 60.7572 14.81C60.6078 14.81 60.4655 14.782 60.3302 14.726C60.1995 14.6653 60.0852 14.586 59.9872 14.488C59.8892 14.39 59.8098 14.2757 59.7492 14.145C59.6932 14.0143 59.6652 13.8743 59.6652 13.725C59.6652 13.571 59.6932 13.4263 59.7492 13.291C59.8098 13.1557 59.8892 13.039 59.9872 12.941C60.0852 12.843 60.1995 12.766 60.3302 12.71C60.4655 12.6493 60.6078 12.619 60.7572 12.619C60.9112 12.619 61.0558 12.6493 61.1912 12.71C61.3265 12.766 61.4432 12.843 61.5412 12.941C61.6438 13.039 61.7255 13.1557 61.7862 13.291C61.8468 13.4263 61.8772 13.571 61.8772 13.725ZM65.7959 23.112C65.1705 23.112 64.6899 22.937 64.3539 22.587C64.0225 22.2323 63.8569 21.7447 63.8569 21.124V17.113H63.1219C63.0285 17.113 62.9492 17.0827 62.8839 17.022C62.8185 16.9613 62.7859 16.8703 62.7859 16.749V16.063L63.9409 15.874L64.3049 13.914C64.3282 13.8207 64.3725 13.7483 64.4379 13.697C64.5032 13.6457 64.5872 13.62 64.6899 13.62H65.5859V15.881H67.5039V17.113H65.5859V21.005C65.5859 21.229 65.6395 21.404 65.7469 21.53C65.8589 21.656 66.0105 21.719 66.2019 21.719C66.3092 21.719 66.3979 21.7073 66.4679 21.684C66.5425 21.656 66.6055 21.628 66.6569 21.6C66.7129 21.572 66.7619 21.5463 66.8039 21.523C66.8459 21.495 66.8879 21.481 66.9299 21.481C66.9812 21.481 67.0232 21.495 67.0559 21.523C67.0885 21.5463 67.1235 21.5837 67.1609 21.635L67.6789 22.475C67.4269 22.685 67.1375 22.8437 66.8109 22.951C66.4842 23.0583 66.1459 23.112 65.7959 23.112Z" fill="#F9981C"/>
<path d="M19.1468 23.0064L25.5565 16.5966C24.6841 16.2335 23.6509 15.6371 22.6737 14.6599C21.6964 13.6826 21.0999 12.6492 20.7368 11.7767L14.327 18.1866C13.8268 18.6867 13.5767 18.9369 13.3616 19.2127C13.1079 19.538 12.8903 19.8899 12.7128 20.2624C12.5624 20.5781 12.4505 20.9136 12.2268 21.5847L11.0472 25.1236C10.9371 25.4539 11.0231 25.818 11.2692 26.0641C11.5154 26.3103 11.8795 26.3962 12.2097 26.2861L15.7486 25.1065C16.4197 24.8828 16.7553 24.771 17.071 24.6205C17.4434 24.443 17.7954 24.2255 18.1207 23.9718C18.3964 23.7567 18.6466 23.5065 19.1468 23.0064Z" fill="#F9981C"/>
<path d="M27.3351 14.818C28.6661 13.487 28.6661 11.3292 27.3351 9.99821C26.0042 8.66726 23.8463 8.66726 22.5154 9.99821L21.7466 10.767C21.7571 10.7988 21.768 10.831 21.7794 10.8636C22.0611 11.6758 22.5928 12.7405 23.5929 13.7407C24.5931 14.7408 25.6578 15.2725 26.47 15.5543C26.5025 15.5655 26.5346 15.5764 26.5662 15.5869L27.3351 14.818Z" fill="#F9981C"/>
</svg>
