<!DOCTYPE svg PUBLIC "-//W3C//DTD SVG 1.1//EN" "http://www.w3.org/Graphics/SVG/1.1/DTD/svg11.dtd">
<!-- Uploaded to: SVG Repo, www.svgrepo.com, Transformed by: SVG Repo Mixer Tools -->
<svg fill="#20C997" height="256px" width="256px" version="1.1" id="Capa_1" xmlns="http://www.w3.org/2000/svg" xmlns:xlink="http://www.w3.org/1999/xlink" viewBox="0 0 496.52 496.52" xml:space="preserve" style="--darkreader-inline-fill:#1aa179; --darkreader-inline-stroke:#46e2b4;" stroke="#20C997" data-darkreader-inline-fill="" data-darkreader-inline-stroke="" transform="rotate(0)matrix(-1, 0, 0, 1, 0, 0)">
<g id="SVGRepo_bgCarrier" stroke-width="0"/>
<g id="SVGRepo_tracerCarrier" stroke-linecap="round" stroke-linejoin="round"/>
<g id="SVGRepo_iconCarrier"> <g> <path d="M382.442,195.246c-0.919,0-1.81,0.104-2.707,0.136c-13.122-69.601-74.134-122.273-147.532-122.273 c-82.994,0-150.259,67.265-150.259,150.249c0,12.663,1.729,24.891,4.687,36.632c-1.584-0.098-3.087-0.477-4.687-0.477 C36.68,259.513,0,296.194,0,341.471c0,43.402,32.835,79.105,75.525,81.941h306.917c62.999,0,114.079-51.08,114.079-114.087 C496.522,246.317,445.441,195.246,382.442,195.246z M354.412,318.488c-13.587,44.802-53.36,73.749-101.338,73.749 c-47.541,0-86.958-28.487-100.883-72.608h-19.297c-4.922,0-9.367-2.967-11.252-7.516c-1.88-4.559-0.838-9.787,2.637-13.27 l27.523-27.523c6.636-6.626,17.377-6.626,24.009,0l27.526,27.523c3.483,3.482,4.525,8.711,2.643,13.27 c-1.885,4.549-6.329,7.516-11.258,7.516h-6.942c13.899,28.815,42.83,39.507,65.295,39.507c25.107,0,58.418-13.163,69.66-50.247 c2.657-8.752,11.91-13.673,20.637-11.038C352.123,300.5,357.06,309.745,354.412,318.488z M377.434,244.192l-27.525,27.517 c-6.627,6.626-17.374,6.626-24,0l-27.523-27.517c-3.482-3.484-4.525-8.728-2.642-13.278c1.882-4.549,6.326-7.514,11.248-7.514 h6.948c-13.899-28.818-42.826-39.509-65.295-39.509c-25.106,0-58.415,13.164-69.656,50.248 c-2.643,8.759-11.863,13.722-20.641,11.039c-8.751-2.651-13.689-11.896-11.038-20.64c13.585-44.801,53.361-73.747,101.335-73.747 c47.541,0,86.962,28.484,100.886,72.608h19.298c4.922,0,9.363,2.965,11.248,7.514C381.96,235.464,380.917,240.708,377.434,244.192z "/> </g> </g>
</svg>