<svg width="20" height="20" viewBox="0 0 20 20" fill="none" xmlns="http://www.w3.org/2000/svg">
<path fill-rule="evenodd" clip-rule="evenodd" d="M1.46447 1.46447C0 2.92893 0 5.28595 0 10C0 14.714 0 17.0711 1.46447 18.5355C2.92893 20 5.28595 20 10 20C14.714 20 17.0711 20 18.5355 18.5355C20 17.0711 20 14.714 20 10C20 5.28595 20 2.92893 18.5355 1.46447C17.0711 0 14.714 0 10 0C5.28595 0 2.92893 0 1.46447 1.46447ZM4.42385 7.51988C4.68903 7.20167 5.16195 7.15868 5.48016 7.42385L5.75658 7.6542C6.36153 8.15827 6.87653 8.5874 7.23295 8.9821C7.61151 9.40132 7.90694 9.88344 7.90694 10.5C7.90694 11.1166 7.61151 11.5987 7.23295 12.0179C6.87653 12.4126 6.36153 12.8418 5.75658 13.3458L5.48016 13.5762C5.16195 13.8414 4.68903 13.7984 4.42385 13.4802C4.15868 13.1619 4.20167 12.689 4.51988 12.4239L4.75428 12.2285C5.41285 11.6797 5.84348 11.3185 6.11968 11.0126C6.38196 10.7222 6.40694 10.586 6.40694 10.5C6.40694 10.414 6.38196 10.2779 6.11968 9.9874C5.84348 9.68154 5.41285 9.32032 4.75429 8.77152L4.51988 8.57619C4.20167 8.31101 4.15868 7.83809 4.42385 7.51988ZM15.75 13C15.75 13.4142 15.4142 13.75 15 13.75H10C9.58581 13.75 9.25002 13.4142 9.25002 13C9.25002 12.5858 9.58581 12.25 10 12.25H15C15.4142 12.25 15.75 12.5858 15.75 13Z" fill="#20C997"/>
</svg>
