<svg width="18" height="20" viewBox="0 0 18 20" fill="none" xmlns="http://www.w3.org/2000/svg">
<path fill-rule="evenodd" clip-rule="evenodd" d="M0.377516 3.08241C0 3.62028 0 5.21907 0 8.41666V9.99136C0 15.6294 4.23896 18.3655 6.89856 19.5273C7.62001 19.8424 7.98074 20 9 20C10.0193 20 10.38 19.8424 11.1014 19.5273C13.761 18.3655 18 15.6294 18 9.99136V8.41666C18 5.21907 18 3.62028 17.6225 3.08241C17.245 2.54454 15.7417 2.02996 12.7351 1.00079L12.1623 0.804717C10.595 0.268239 9.81139 0 9 0C8.18861 0 7.40498 0.268239 5.83772 0.804717L5.26491 1.00079C2.25832 2.02996 0.755031 2.54454 0.377516 3.08241ZM10.5 13C10.5 13.5523 10.0523 14 9.5 14H8.5C7.94772 14 7.5 13.5523 7.5 13V11.5987C6.6033 11.0799 6 10.1104 6 9C6 7.34315 7.34315 6 9 6C10.6569 6 12 7.34315 12 9C12 10.1104 11.3967 11.0799 10.5 11.5987V13Z" fill="#20C997"/>
</svg>
