<svg width="138" height="28" viewBox="0 0 138 28" fill="none" xmlns="http://www.w3.org/2000/svg">
<rect x="1.5" y="1.5" width="135" height="25" rx="12.5" fill="#101116" stroke="#1EC08F" stroke-width="3"/>
<path d="M55.9926 10.719C55.9366 10.817 55.8759 10.8893 55.8106 10.936C55.7499 10.978 55.6729 10.999 55.5796 10.999C55.4816 10.999 55.3743 10.964 55.2576 10.894C55.1456 10.8193 55.0103 10.7377 54.8516 10.649C54.6929 10.5603 54.5063 10.481 54.2916 10.411C54.0816 10.3363 53.8319 10.299 53.5426 10.299C53.2813 10.299 53.0526 10.3317 52.8566 10.397C52.6606 10.4577 52.4949 10.544 52.3596 10.656C52.2289 10.768 52.1309 10.9033 52.0656 11.062C52.0003 11.216 51.9676 11.3863 51.9676 11.573C51.9676 11.811 52.0329 12.0093 52.1636 12.168C52.2989 12.3267 52.4763 12.462 52.6956 12.574C52.9149 12.686 53.1646 12.7863 53.4446 12.875C53.7246 12.9637 54.0116 13.0593 54.3056 13.162C54.5996 13.26 54.8866 13.3767 55.1666 13.512C55.4466 13.6427 55.6963 13.8107 55.9156 14.016C56.1349 14.2167 56.3099 14.464 56.4406 14.758C56.5759 15.052 56.6436 15.409 56.6436 15.829C56.6436 16.2863 56.5643 16.7157 56.4056 17.117C56.2516 17.5137 56.0229 17.8613 55.7196 18.16C55.4209 18.454 55.0546 18.6873 54.6206 18.86C54.1866 19.028 53.6896 19.112 53.1296 19.112C52.8076 19.112 52.4903 19.0793 52.1776 19.014C51.8649 18.9533 51.5639 18.8647 51.2746 18.748C50.9899 18.6313 50.7216 18.4913 50.4696 18.328C50.2176 18.1647 49.9936 17.9827 49.7976 17.782L50.3506 16.879C50.3973 16.8137 50.4579 16.76 50.5326 16.718C50.6073 16.6713 50.6866 16.648 50.7706 16.648C50.8873 16.648 51.0133 16.697 51.1486 16.795C51.2839 16.8883 51.4449 16.9933 51.6316 17.11C51.8183 17.2267 52.0353 17.334 52.2826 17.432C52.5346 17.5253 52.8356 17.572 53.1856 17.572C53.7223 17.572 54.1376 17.446 54.4316 17.194C54.7256 16.9373 54.8726 16.571 54.8726 16.095C54.8726 15.829 54.8049 15.612 54.6696 15.444C54.5389 15.276 54.3639 15.136 54.1446 15.024C53.9253 14.9073 53.6756 14.8093 53.3956 14.73C53.1156 14.6507 52.8309 14.5643 52.5416 14.471C52.2523 14.3777 51.9676 14.2657 51.6876 14.135C51.4076 14.0043 51.1579 13.834 50.9386 13.624C50.7193 13.414 50.5419 13.1527 50.4066 12.84C50.2759 12.5227 50.2106 12.133 50.2106 11.671C50.2106 11.3023 50.2829 10.943 50.4276 10.593C50.5769 10.243 50.7916 9.93267 51.0716 9.662C51.3516 9.39133 51.6969 9.17433 52.1076 9.011C52.5183 8.84767 52.9896 8.766 53.5216 8.766C54.1189 8.766 54.6696 8.85933 55.1736 9.046C55.6776 9.23267 56.1069 9.494 56.4616 9.83L55.9926 10.719ZM62.6128 14.583C62.6128 14.359 62.5802 14.149 62.5148 13.953C62.4542 13.7523 62.3608 13.5773 62.2348 13.428C62.1088 13.2787 61.9478 13.162 61.7518 13.078C61.5605 12.9893 61.3365 12.945 61.0798 12.945C60.5805 12.945 60.1862 13.0873 59.8968 13.372C59.6122 13.6567 59.4302 14.0603 59.3508 14.583H62.6128ZM59.3158 15.626C59.3438 15.9947 59.4092 16.3143 59.5118 16.585C59.6145 16.851 59.7498 17.0727 59.9178 17.25C60.0858 17.4227 60.2842 17.5533 60.5128 17.642C60.7462 17.726 61.0028 17.768 61.2828 17.768C61.5628 17.768 61.8032 17.7353 62.0038 17.67C62.2092 17.6047 62.3865 17.5323 62.5358 17.453C62.6898 17.3737 62.8228 17.3013 62.9348 17.236C63.0515 17.1707 63.1635 17.138 63.2708 17.138C63.4155 17.138 63.5228 17.1917 63.5928 17.299L64.0898 17.929C63.8985 18.153 63.6838 18.342 63.4458 18.496C63.2078 18.6453 62.9582 18.7667 62.6968 18.86C62.4402 18.9487 62.1765 19.0117 61.9058 19.049C61.6398 19.0863 61.3808 19.105 61.1288 19.105C60.6295 19.105 60.1652 19.0233 59.7358 18.86C59.3065 18.692 58.9332 18.447 58.6158 18.125C58.2985 17.7983 58.0488 17.397 57.8668 16.921C57.6848 16.4403 57.5938 15.885 57.5938 15.255C57.5938 14.765 57.6732 14.3053 57.8318 13.876C57.9905 13.442 58.2168 13.0663 58.5108 12.749C58.8095 12.427 59.1712 12.1727 59.5958 11.986C60.0252 11.7993 60.5082 11.706 61.0448 11.706C61.4975 11.706 61.9152 11.7783 62.2978 11.923C62.6805 12.0677 63.0095 12.28 63.2848 12.56C63.5602 12.8353 63.7748 13.176 63.9288 13.582C64.0875 13.9833 64.1668 14.443 64.1668 14.961C64.1668 15.2223 64.1388 15.3997 64.0828 15.493C64.0268 15.5817 63.9195 15.626 63.7608 15.626H59.3158ZM67.2144 8.598V19H65.4854V8.598H67.2144ZM73.564 14.583C73.564 14.359 73.5313 14.149 73.466 13.953C73.4053 13.7523 73.312 13.5773 73.186 13.428C73.06 13.2787 72.899 13.162 72.703 13.078C72.5117 12.9893 72.2877 12.945 72.031 12.945C71.5317 12.945 71.1373 13.0873 70.848 13.372C70.5633 13.6567 70.3813 14.0603 70.302 14.583H73.564ZM70.267 15.626C70.295 15.9947 70.3603 16.3143 70.463 16.585C70.5657 16.851 70.701 17.0727 70.869 17.25C71.037 17.4227 71.2353 17.5533 71.464 17.642C71.6973 17.726 71.954 17.768 72.234 17.768C72.514 17.768 72.7543 17.7353 72.955 17.67C73.1603 17.6047 73.3377 17.5323 73.487 17.453C73.641 17.3737 73.774 17.3013 73.886 17.236C74.0027 17.1707 74.1147 17.138 74.222 17.138C74.3667 17.138 74.474 17.1917 74.544 17.299L75.041 17.929C74.8497 18.153 74.635 18.342 74.397 18.496C74.159 18.6453 73.9093 18.7667 73.648 18.86C73.3913 18.9487 73.1277 19.0117 72.857 19.049C72.591 19.0863 72.332 19.105 72.08 19.105C71.5807 19.105 71.1163 19.0233 70.687 18.86C70.2577 18.692 69.8843 18.447 69.567 18.125C69.2497 17.7983 69 17.397 68.818 16.921C68.636 16.4403 68.545 15.885 68.545 15.255C68.545 14.765 68.6243 14.3053 68.783 13.876C68.9417 13.442 69.168 13.0663 69.462 12.749C69.7607 12.427 70.1223 12.1727 70.547 11.986C70.9763 11.7993 71.4593 11.706 71.996 11.706C72.4487 11.706 72.8663 11.7783 73.249 11.923C73.6317 12.0677 73.9607 12.28 74.236 12.56C74.5113 12.8353 74.726 13.176 74.88 13.582C75.0387 13.9833 75.118 14.443 75.118 14.961C75.118 15.2223 75.09 15.3997 75.034 15.493C74.978 15.5817 74.8707 15.626 74.712 15.626H70.267ZM81.5605 13.337C81.5092 13.4023 81.4579 13.4537 81.4065 13.491C81.3599 13.5283 81.2899 13.547 81.1965 13.547C81.1079 13.547 81.0215 13.5213 80.9375 13.47C80.8535 13.414 80.7532 13.3533 80.6365 13.288C80.5199 13.218 80.3799 13.1573 80.2165 13.106C80.0579 13.05 79.8595 13.022 79.6215 13.022C79.3182 13.022 79.0522 13.078 78.8235 13.19C78.5949 13.2973 78.4035 13.4537 78.2495 13.659C78.1002 13.8643 77.9882 14.114 77.9135 14.408C77.8389 14.6973 77.8015 15.0263 77.8015 15.395C77.8015 15.7777 77.8412 16.1183 77.9205 16.417C78.0045 16.7157 78.1235 16.9677 78.2775 17.173C78.4315 17.3737 78.6182 17.5277 78.8375 17.635C79.0569 17.7377 79.3042 17.789 79.5795 17.789C79.8549 17.789 80.0765 17.7563 80.2445 17.691C80.4172 17.621 80.5619 17.5463 80.6785 17.467C80.7952 17.383 80.8955 17.3083 80.9795 17.243C81.0682 17.173 81.1662 17.138 81.2735 17.138C81.4135 17.138 81.5185 17.1917 81.5885 17.299L82.0855 17.929C81.8942 18.153 81.6865 18.342 81.4625 18.496C81.2385 18.6453 81.0052 18.7667 80.7625 18.86C80.5245 18.9487 80.2772 19.0117 80.0205 19.049C79.7685 19.0863 79.5165 19.105 79.2645 19.105C78.8212 19.105 78.4035 19.0233 78.0115 18.86C77.6195 18.692 77.2765 18.4493 76.9825 18.132C76.6885 17.8147 76.4552 17.4273 76.2825 16.97C76.1145 16.508 76.0305 15.983 76.0305 15.395C76.0305 14.8677 76.1052 14.38 76.2545 13.932C76.4085 13.4793 76.6325 13.0897 76.9265 12.763C77.2205 12.4317 77.5845 12.1727 78.0185 11.986C78.4525 11.7993 78.9519 11.706 79.5165 11.706C80.0532 11.706 80.5222 11.7923 80.9235 11.965C81.3295 12.1377 81.6935 12.385 82.0155 12.707L81.5605 13.337ZM85.5634 19.112C84.9381 19.112 84.4574 18.937 84.1214 18.587C83.7901 18.2323 83.6244 17.7447 83.6244 17.124V13.113H82.8894C82.7961 13.113 82.7168 13.0827 82.6514 13.022C82.5861 12.9613 82.5534 12.8703 82.5534 12.749V12.063L83.7084 11.874L84.0724 9.914C84.0958 9.82067 84.1401 9.74833 84.2054 9.697C84.2708 9.64567 84.3548 9.62 84.4574 9.62H85.3534V11.881H87.2714V13.113H85.3534V17.005C85.3534 17.229 85.4071 17.404 85.5144 17.53C85.6264 17.656 85.7781 17.719 85.9694 17.719C86.0768 17.719 86.1654 17.7073 86.2354 17.684C86.3101 17.656 86.3731 17.628 86.4244 17.6C86.4804 17.572 86.5294 17.5463 86.5714 17.523C86.6134 17.495 86.6554 17.481 86.6974 17.481C86.7488 17.481 86.7908 17.495 86.8234 17.523C86.8561 17.5463 86.8911 17.5837 86.9284 17.635L87.4464 18.475C87.1944 18.685 86.9051 18.8437 86.5784 18.951C86.2518 19.0583 85.9134 19.112 85.5634 19.112Z" fill="#1EC08F"/>
</svg>
