<svg width="27" height="28" viewBox="0 0 27 28" fill="none" xmlns="http://www.w3.org/2000/svg">
<path fill-rule="evenodd" clip-rule="evenodd" d="M27 14.3313C27 21.7568 20.9558 27.7764 13.5 27.7764C6.04416 27.7764 0 21.7568 0 14.3313C0 6.90577 6.04416 0.886185 13.5 0.886185C20.9558 0.886185 27 6.90577 27 14.3313ZM13.5 8.61713C12.6612 8.61713 11.9812 9.29433 11.9812 10.1297C11.9812 10.6866 11.5279 11.1381 10.9688 11.1381C10.4096 11.1381 9.95625 10.6866 9.95625 10.1297C9.95625 8.1805 11.5428 6.60036 13.5 6.60036C15.4572 6.60036 17.0438 8.1805 17.0438 10.1297C17.0438 11.0854 16.661 11.9542 16.042 12.5888C15.9174 12.7165 15.7986 12.8347 15.6853 12.9475C15.3939 13.2374 15.1386 13.4914 14.9147 13.778C14.619 14.1564 14.5125 14.4345 14.5125 14.6674V15.6758C14.5125 16.2327 14.0592 16.6842 13.5 16.6842C12.9408 16.6842 12.4875 16.2327 12.4875 15.6758V14.6674C12.4875 13.7865 12.8993 13.0734 13.3166 12.5394C13.6254 12.1442 14.0136 11.7584 14.3286 11.4453C14.4236 11.3508 14.512 11.263 14.5895 11.1835C14.8562 10.9101 15.0188 10.5398 15.0188 10.1297C15.0188 9.29433 14.3388 8.61713 13.5 8.61713ZM13.5 21.0539C14.2456 21.0539 14.85 20.4519 14.85 19.7094C14.85 18.9668 14.2456 18.3648 13.5 18.3648C12.7544 18.3648 12.15 18.9668 12.15 19.7094C12.15 20.4519 12.7544 21.0539 13.5 21.0539Z" fill="#CCCCCC"/>
</svg>
